<svg xmlns="http://www.w3.org/2000/svg" width="550" height="312" fill="none"><path stroke="#108475" stroke-miterlimit="10" stroke-width="2" d="M457.122 106h-57.524l-28.759 49.617 28.759 49.618h57.524l28.759-49.618L457.122 106Zm-122.946 0h-57.525l-28.759 49.617 28.759 49.618h57.525l28.759-49.618L334.176 106Zm-122.946 0h-57.525l-28.759 49.617 28.759 49.618h57.525l28.759-49.618L211.23 106Zm-122.946 0H30.759L2 155.617l28.759 49.618h57.525l28.758-49.618L88.284 106Zm431.189 105h-57.524l-28.759 49.618 28.759 49.617h57.524l28.759-49.617L519.473 211Zm-122.946 0h-57.524l-28.759 49.618 28.759 49.617h57.524l28.759-49.617L396.527 211Zm-122.946 0h-57.525l-28.759 49.618 28.759 49.617h57.525l28.759-49.617L273.581 211Zm-122.946 0H93.11l-28.759 49.618 28.76 49.617h57.524l28.759-49.617L150.635 211ZM396.527 1h-57.524l-28.759 49.618 28.759 49.617h57.524l28.759-49.617L396.527 1ZM273.581 1h-57.525l-28.759 49.618 28.759 49.617h57.525l28.759-49.617L273.581 1ZM150.635 1H93.11L64.351 50.618l28.76 49.617h57.524l28.759-49.617L150.635 1Z"/></svg>