<svg xmlns="http://www.w3.org/2000/svg" width="412" height="389" fill="none"><g stroke="#108475" stroke-miterlimit="10" clip-path="url(#a)"><path stroke-width="2" d="M104.256 322.585H9.624c-5.007 0-9.066-4.057-9.066-9.063V9.622C.558 4.616 4.617.558 9.624.558h392.751c5.008 0 9.067 4.058 9.067 9.064v303.9c0 5.006-4.059 9.063-9.067 9.063h-94.631M.558 55.81h410.884M22.889 29.58h238.938"/><path stroke-width="2" d="M293.648 43.532c7.708 0 13.956-6.247 13.956-13.952 0-7.706-6.248-13.953-13.956-13.953-7.708 0-13.957 6.247-13.957 13.953 0 7.705 6.249 13.952 13.957 13.952Zm86.531 0c7.708 0 13.956-6.247 13.956-13.952 0-7.706-6.248-13.953-13.956-13.953-7.708 0-13.957 6.247-13.957 13.953 0 7.705 6.249 13.952 13.957 13.952Zm-43.266 0c7.708 0 13.957-6.247 13.957-13.952 0-7.706-6.249-13.953-13.957-13.953-7.708 0-13.956 6.247-13.956 13.953 0 7.705 6.248 13.952 13.956 13.952Zm-35.868 179.152h-190.09a6.698 6.698 0 0 0-6.699 6.698v152.363a6.698 6.698 0 0 0 6.699 6.697h190.09c3.7 0 6.699-2.999 6.699-6.697V229.382a6.698 6.698 0 0 0-6.699-6.698Z"/><path stroke-width="2" d="M148.42 222.684v-51.379c0-31.661 25.77-57.423 57.44-57.423 31.671 0 57.44 25.762 57.44 57.423v51.379h16.531v-51.379c0-40.775-33.184-73.949-73.971-73.949-40.786 0-73.97 33.174-73.97 73.949v51.379h16.53Z"/><path stroke-width="4" d="M168 317.191 192.064 345 257 266"/></g><defs><clipPath id="a"><path fill="#fff" d="M0 0h412v389H0z"/></clipPath></defs></svg>