<svg xmlns="http://www.w3.org/2000/svg" width="558" height="355" fill="none"><path stroke="#108475" stroke-width="2" d="M.106 355v-10.65M12.213 355v-12.425M24.319 355v-12.425M36.425 355v-12.425M48.532 355v-13.312M60.638 355v-14.2M72.745 355v-15.087M84.851 355v-15.975M96.957 355v-17.75M109.064 355v-18.638M121.17 355v-22.188M133.277 355v-24.85M145.383 355v-26.625M157.489 355v-28.4m12.107 28.4v-30.175M181.702 355v-32.837M193.809 355v-35.5m12.106 35.5v-38.163M218.021 355v-41.712M230.128 355v-44.375M242.234 355v-47.038M254.34 355v-50.587M266.447 355v-54.138M278.553 355v-56.8M290.66 355v-60.35M302.766 355v-63.013M314.872 355v-66.562M326.979 355v-71.887M339.085 355v-77.212M351.191 355v-83.425M363.298 355v-88.75M375.404 355v-94.075M387.511 355V253.825M399.617 355V246.725M411.513 355V233.856M423.83 355V221.875M435.936 355V207.675M448.043 355V195.25M460.149 355V177.5M472.255 355V159.75M484.362 355V142m12.106 213V124.25M508.574 355V106.5M520.681 355V88.75M532.787 355V71m12.107 284V35.5M557 355V0"/></svg>