<svg xmlns="http://www.w3.org/2000/svg" width="549" height="300" fill="none"><rect width="383.707" height="65.912" x="1" y="1" stroke="#108475" stroke-width="2" rx="9"/><path stroke="#108475" stroke-miterlimit="10" stroke-width="2" d="M33.86 33.956h208.036m27.705 12.107c6.712 0 12.152-5.439 12.152-12.148 0-6.71-5.44-12.148-12.152-12.148-6.711 0-12.151 5.439-12.151 12.148 0 6.71 5.44 12.148 12.151 12.148Zm75.341 0c6.711 0 12.151-5.439 12.151-12.148 0-6.71-5.44-12.148-12.151-12.148-6.712 0-12.152 5.439-12.152 12.148 0 6.71 5.44 12.148 12.152 12.148Zm-37.67 0c6.711 0 12.151-5.439 12.151-12.148 0-6.71-5.44-12.148-12.151-12.148-6.712 0-12.152 5.439-12.152 12.148 0 6.71 5.44 12.148 12.152 12.148Z"/><rect width="383.707" height="65.912" x="109.308" y="155.725" stroke="#108475" stroke-width="2" rx="9"/><path stroke="#108475" stroke-miterlimit="10" stroke-width="2" d="M142.167 188.681h208.036m27.706 12.107c6.711 0 12.152-5.439 12.152-12.148s-5.441-12.148-12.152-12.148c-6.711 0-12.152 5.439-12.152 12.148s5.441 12.148 12.152 12.148Zm75.34 0c6.711 0 12.152-5.439 12.152-12.148s-5.441-12.148-12.152-12.148c-6.711 0-12.151 5.439-12.151 12.148s5.44 12.148 12.151 12.148Zm-37.67 0c6.711 0 12.152-5.439 12.152-12.148s-5.441-12.148-12.152-12.148c-6.711 0-12.152 5.439-12.152 12.148s5.441 12.148 12.152 12.148Z"/><rect width="383.707" height="65.912" x="55.154" y="78.362" stroke="#108475" stroke-width="2" rx="9"/><path stroke="#108475" stroke-miterlimit="10" stroke-width="2" d="M88.013 111.319H296.05m27.705 12.107c6.711 0 12.152-5.439 12.152-12.148 0-6.71-5.441-12.149-12.152-12.149-6.711 0-12.151 5.439-12.151 12.149 0 6.709 5.44 12.148 12.151 12.148Zm75.34 0c6.712 0 12.152-5.439 12.152-12.148 0-6.71-5.44-12.149-12.152-12.149-6.711 0-12.151 5.439-12.151 12.149 0 6.709 5.44 12.148 12.151 12.148Zm-37.67 0c6.712 0 12.152-5.439 12.152-12.148 0-6.71-5.44-12.149-12.152-12.149-6.711 0-12.151 5.439-12.151 12.149 0 6.709 5.44 12.148 12.151 12.148Z"/><rect width="383.707" height="65.912" x="163.461" y="233.088" stroke="#108475" stroke-width="2" rx="9"/><path stroke="#108475" stroke-miterlimit="10" stroke-width="2" d="M196.321 266.044h208.036m27.706 12.107c6.711 0 12.151-5.439 12.151-12.148 0-6.71-5.44-12.149-12.151-12.149-6.711 0-12.152 5.439-12.152 12.149 0 6.709 5.441 12.148 12.152 12.148Zm75.34 0c6.711 0 12.152-5.439 12.152-12.148 0-6.71-5.441-12.149-12.152-12.149-6.711 0-12.152 5.439-12.152 12.149 0 6.709 5.441 12.148 12.152 12.148Zm-37.67 0c6.711 0 12.152-5.439 12.152-12.148 0-6.71-5.441-12.149-12.152-12.149-6.711 0-12.152 5.439-12.152 12.149 0 6.709 5.441 12.148 12.152 12.148Z"/></svg>