<svg xmlns="http://www.w3.org/2000/svg" width="470" height="496" fill="none"><g stroke="#108475" stroke-miterlimit="10" stroke-width="2" clip-path="url(#a)"><path d="M64.23 88.367.677 121.868v77.055l63.553 33.509 63.371-33.509v-77.055l-63.37-33.501Z"/><path d="M.677 121.868 64.23 155.37l63.371-33.502M64.23 155.37v77.062m0 31.136L.677 297.07v77.055l63.553 33.508 63.371-33.508V297.07l-63.37-33.502Z"/><path d="m.677 297.07 63.553 33.502 63.371-33.502M64.23 330.572v77.061M405.952 88.367l-63.553 33.501v77.055l63.553 33.509 63.371-33.509v-77.055l-63.371-33.501Z"/><path d="m342.399 121.868 63.553 33.502 63.371-33.502m-63.371 33.502v77.062m0 31.136-63.553 33.502v77.055l63.553 33.508 63.371-33.508V297.07l-63.371-33.502Z"/><path d="m342.399 297.07 63.553 33.502 63.371-33.502m-63.371 33.502v77.061M235.098 175.968l-63.553 33.501v77.055l63.553 33.509 63.371-33.509v-77.055l-63.371-33.501Z"/><path d="m171.545 209.469 63.553 33.502 63.371-33.502m-63.371 33.502v77.062m0 31.136-63.553 33.502v77.055l63.553 33.508 63.371-33.508v-77.055l-63.371-33.502Z"/><path d="m171.545 384.671 63.553 33.501 63.371-33.501m-63.371 33.502v77.061m0-494.468-63.553 33.502v77.054l63.553 33.509 63.371-33.509V34.268L235.098.766Z"/><path d="m171.545 34.268 63.553 33.501 63.371-33.501M235.098 67.77v77.061"/></g><defs><clipPath id="a"><path fill="#fff" d="M0 0h470v496H0z"/></clipPath></defs></svg>