<svg xmlns="http://www.w3.org/2000/svg" width="445" height="353" fill="none"><g stroke="#108475" stroke-miterlimit="10" stroke-width="2" clip-path="url(#a)"><path d="M69.204 36.972c4.715 1.364 8.942 3.948 12.323 7.386a29.042 29.042 0 0 1 8.342 20.4v49.123m-56.805 0V64.758c0-13.263 8.91-24.516 20.946-27.864"/><path d="M80.029 19.956c0 7.573-4.442 14.095-10.825 17.016a17.987 17.987 0 0 1-7.514 1.633c-2.68 0-5.345-.615-7.68-1.71-6.293-2.957-10.659-9.43-10.659-16.94 0-10.297 8.212-18.648 18.339-18.648 10.126 0 18.339 8.351 18.339 18.649Z"/></g><g stroke="#108475" stroke-miterlimit="10" stroke-width="2" clip-path="url(#b)"><path d="M133.729 36.972a28.848 28.848 0 0 1 12.491 7.386c5.219 5.235 8.456 12.458 8.456 20.4v49.123m-57.583 0V64.758c0-13.263 9.032-24.516 21.233-27.864"/><path d="M144.701 19.956a18.657 18.657 0 0 1-10.972 17.016 18.447 18.447 0 0 1-7.618 1.633 18.7 18.7 0 0 1-7.785-1.71 18.656 18.656 0 0 1-10.805-16.94c0-10.297 8.325-18.648 18.59-18.648 10.266 0 18.59 8.351 18.59 18.649Z"/></g><g stroke="#108475" stroke-miterlimit="10" stroke-width="2" clip-path="url(#c)"><path d="M198.041 36.972c4.714 1.364 8.941 3.948 12.323 7.386a29.043 29.043 0 0 1 8.341 20.4v49.123m-56.805 0V64.758c0-13.263 8.91-24.516 20.947-27.864"/><path d="M208.865 19.956c0 7.573-4.441 14.095-10.824 17.016a17.987 17.987 0 0 1-7.514 1.633 18.25 18.25 0 0 1-7.68-1.71c-6.294-2.957-10.659-9.43-10.659-16.94 0-10.297 8.212-18.648 18.339-18.648 10.126 0 18.338 8.351 18.338 18.649Z"/></g><g stroke="#108475" stroke-miterlimit="10" stroke-width="2" clip-path="url(#d)"><path d="M262.565 36.972a28.851 28.851 0 0 1 12.492 7.386c5.218 5.235 8.456 12.458 8.456 20.4v49.123m-57.584 0V64.758c0-13.263 9.032-24.516 21.234-27.864"/><path d="M273.538 19.956a18.658 18.658 0 0 1-10.973 17.016 18.442 18.442 0 0 1-7.617 1.633 18.7 18.7 0 0 1-7.785-1.71 18.654 18.654 0 0 1-10.805-16.94c0-10.297 8.325-18.648 18.59-18.648s18.59 8.351 18.59 18.649Z"/></g><g stroke="#108475" stroke-miterlimit="10" stroke-width="2" clip-path="url(#e)"><path d="M326.877 36.972c4.715 1.364 8.942 3.948 12.323 7.386a29.043 29.043 0 0 1 8.342 20.4v49.123m-56.805 0V64.758c0-13.263 8.91-24.516 20.946-27.864"/><path d="M337.702 19.956c0 7.573-4.442 14.095-10.825 17.016a17.984 17.984 0 0 1-7.514 1.633 18.24 18.24 0 0 1-7.68-1.71c-6.293-2.957-10.659-9.43-10.659-16.94 0-10.297 8.213-18.648 18.339-18.648 10.127 0 18.339 8.351 18.339 18.649Z"/></g><g stroke="#108475" stroke-miterlimit="10" stroke-width="2" clip-path="url(#f)"><path d="M391.402 36.972a28.848 28.848 0 0 1 12.491 7.386c5.219 5.235 8.456 12.458 8.456 20.4v49.123m-57.583 0V64.758c0-13.263 9.032-24.516 21.233-27.864"/><path d="M402.374 19.956a18.657 18.657 0 0 1-10.972 17.016 18.447 18.447 0 0 1-7.618 1.633 18.7 18.7 0 0 1-7.785-1.71 18.655 18.655 0 0 1-10.804-16.94c0-10.297 8.324-18.648 18.589-18.648 10.266 0 18.59 8.351 18.59 18.649Z"/></g><g stroke="#108475" stroke-miterlimit="10" stroke-width="2" clip-path="url(#g)"><path d="M69.204 275.238c4.715 1.365 8.942 3.948 12.323 7.387a29.041 29.041 0 0 1 8.342 20.399v49.123m-56.805 0v-49.123c0-13.263 8.91-24.516 20.946-27.863"/><path d="M80.029 258.222c0 7.573-4.442 14.096-10.825 17.016a17.982 17.982 0 0 1-7.514 1.633 18.24 18.24 0 0 1-7.68-1.71c-6.293-2.957-10.659-9.429-10.659-16.939 0-10.297 8.212-18.648 18.339-18.648 10.126 0 18.339 8.351 18.339 18.648Z"/></g><g stroke="#108475" stroke-miterlimit="10" stroke-width="2" clip-path="url(#h)"><path d="M133.729 275.238a28.85 28.85 0 0 1 12.491 7.387c5.219 5.235 8.456 12.458 8.456 20.399v49.123m-57.583 0v-49.123c0-13.263 9.032-24.516 21.233-27.863"/><path d="M144.701 258.222a18.657 18.657 0 0 1-10.972 17.016 18.442 18.442 0 0 1-7.618 1.633c-2.716 0-5.418-.614-7.785-1.71a18.657 18.657 0 0 1-10.805-16.939c0-10.297 8.325-18.648 18.59-18.648 10.266 0 18.59 8.351 18.59 18.648Z"/></g><g stroke="#108475" stroke-miterlimit="10" stroke-width="2" clip-path="url(#i)"><path d="M198.041 275.238c4.714 1.365 8.941 3.948 12.323 7.387a29.042 29.042 0 0 1 8.341 20.399v49.123m-56.805 0v-49.123c0-13.263 8.91-24.516 20.947-27.863"/><path d="M208.865 258.222c0 7.573-4.441 14.096-10.824 17.016a17.983 17.983 0 0 1-7.514 1.633c-2.68 0-5.346-.614-7.68-1.71-6.294-2.957-10.659-9.429-10.659-16.939 0-10.297 8.212-18.648 18.339-18.648 10.126 0 18.338 8.351 18.338 18.648Z"/></g><g stroke="#108475" stroke-miterlimit="10" stroke-width="2" clip-path="url(#j)"><path d="M262.565 275.238a28.853 28.853 0 0 1 12.492 7.387c5.218 5.235 8.456 12.458 8.456 20.399v49.123m-57.584 0v-49.123c0-13.263 9.032-24.516 21.234-27.863m26.375-16.939a18.658 18.658 0 0 1-10.973 17.016 18.437 18.437 0 0 1-7.617 1.633c-2.716 0-5.418-.614-7.785-1.71a18.655 18.655 0 0 1-10.805-16.939c0-10.297 8.325-18.648 18.59-18.648s18.59 8.351 18.59 18.648Z"/></g><g stroke="#108475" stroke-miterlimit="10" stroke-width="2" clip-path="url(#k)"><path d="M326.877 275.238c4.715 1.365 8.942 3.948 12.323 7.387a29.042 29.042 0 0 1 8.342 20.399v49.123m-56.805 0v-49.123c0-13.263 8.91-24.516 20.946-27.863"/><path d="M337.702 258.222c0 7.573-4.442 14.096-10.825 17.016a17.98 17.98 0 0 1-7.514 1.633c-2.679 0-5.345-.614-7.68-1.71-6.293-2.957-10.659-9.429-10.659-16.939 0-10.297 8.213-18.648 18.339-18.648 10.127 0 18.339 8.351 18.339 18.648Z"/></g><g stroke="#108475" stroke-miterlimit="10" stroke-width="2" clip-path="url(#l)"><path d="M391.402 275.238a28.85 28.85 0 0 1 12.491 7.387c5.219 5.235 8.456 12.458 8.456 20.399v49.123m-57.583 0v-49.123c0-13.263 9.032-24.516 21.233-27.863"/><path d="M402.374 258.222a18.657 18.657 0 0 1-10.972 17.016 18.442 18.442 0 0 1-7.618 1.633c-2.716 0-5.418-.614-7.785-1.71a18.656 18.656 0 0 1-10.804-16.939c0-10.297 8.324-18.648 18.589-18.648 10.266 0 18.59 8.351 18.59 18.648Z"/></g><g stroke="#108475" stroke-miterlimit="10" stroke-width="2" clip-path="url(#m)"><path d="M36.588 158c4.714 1.365 8.941 3.948 12.323 7.387a29.041 29.041 0 0 1 8.341 20.399v49.123m-56.805 0v-49.123c0-13.263 8.91-24.516 20.947-27.863"/><path d="M47.412 140.984c0 7.573-4.441 14.096-10.824 17.016a17.982 17.982 0 0 1-7.514 1.633 18.24 18.24 0 0 1-7.68-1.71c-6.294-2.957-10.66-9.429-10.66-16.939 0-10.297 8.213-18.648 18.34-18.648 10.126 0 18.338 8.351 18.338 18.648Z"/></g><g stroke="#108475" stroke-miterlimit="10" stroke-width="2" clip-path="url(#n)"><path d="M101.112 158a28.853 28.853 0 0 1 12.492 7.387c5.219 5.235 8.456 12.458 8.456 20.399v49.123m-57.583 0v-49.123c0-13.263 9.031-24.516 21.233-27.863"/><path d="M112.085 140.984A18.658 18.658 0 0 1 101.112 158a18.437 18.437 0 0 1-7.617 1.633c-2.716 0-5.418-.614-7.785-1.71a18.656 18.656 0 0 1-10.805-16.939c0-10.297 8.325-18.648 18.59-18.648s18.59 8.351 18.59 18.648Z"/></g><g stroke="#108475" stroke-miterlimit="10" stroke-width="2" clip-path="url(#o)"><path d="M165.425 158c4.714 1.365 8.941 3.948 12.322 7.387a29.038 29.038 0 0 1 8.342 20.399v49.123m-56.805 0v-49.123c0-13.263 8.91-24.516 20.946-27.863"/><path d="M176.249 140.984c0 7.573-4.442 14.096-10.824 17.016a17.987 17.987 0 0 1-7.515 1.633c-2.679 0-5.345-.614-7.68-1.71-6.293-2.957-10.659-9.429-10.659-16.939 0-10.297 8.213-18.648 18.339-18.648 10.127 0 18.339 8.351 18.339 18.648Z"/></g><g stroke="#108475" stroke-miterlimit="10" stroke-width="2" clip-path="url(#p)"><path d="M229.949 158a28.844 28.844 0 0 1 12.491 7.387c5.219 5.235 8.457 12.458 8.457 20.399v49.123m-57.584 0v-49.123c0-13.263 9.032-24.516 21.233-27.863m26.375-16.939A18.657 18.657 0 0 1 229.949 158a18.442 18.442 0 0 1-7.618 1.633c-2.715 0-5.418-.614-7.785-1.71a18.656 18.656 0 0 1-10.804-16.939c0-10.297 8.324-18.648 18.589-18.648 10.266 0 18.59 8.351 18.59 18.648Z"/></g><g stroke="#108475" stroke-miterlimit="10" stroke-width="2" clip-path="url(#q)"><path d="M294.261 158c4.715 1.365 8.941 3.948 12.323 7.387a29.042 29.042 0 0 1 8.342 20.399v49.123m-56.806 0v-49.123c0-13.263 8.91-24.516 20.947-27.863"/><path d="M305.085 140.984c0 7.573-4.441 14.096-10.824 17.016a17.98 17.98 0 0 1-7.514 1.633c-2.679 0-5.345-.614-7.68-1.71-6.293-2.957-10.659-9.429-10.659-16.939 0-10.297 8.212-18.648 18.339-18.648 10.126 0 18.338 8.351 18.338 18.648Z"/></g><g stroke="#108475" stroke-miterlimit="10" stroke-width="2" clip-path="url(#r)"><path d="M358.785 158a28.853 28.853 0 0 1 12.492 7.387c5.219 5.235 8.456 12.458 8.456 20.399v49.123m-57.583 0v-49.123c0-13.263 9.032-24.516 21.233-27.863m26.375-16.939A18.656 18.656 0 0 1 358.785 158a18.437 18.437 0 0 1-7.617 1.633c-2.716 0-5.418-.614-7.785-1.71a18.655 18.655 0 0 1-10.805-16.939c0-10.297 8.325-18.648 18.59-18.648s18.59 8.351 18.59 18.648Z"/></g><g stroke="#108475" stroke-miterlimit="10" stroke-width="2" clip-path="url(#s)"><path d="M423.599 158a28.844 28.844 0 0 1 12.491 7.387c5.219 5.235 8.457 12.458 8.457 20.399v49.123m-57.584 0v-49.123c0-13.263 9.032-24.516 21.233-27.863M434.572 140.984A18.658 18.658 0 0 1 423.599 158a18.437 18.437 0 0 1-7.617 1.633c-2.716 0-5.419-.614-7.786-1.71a18.656 18.656 0 0 1-10.804-16.939c0-10.297 8.324-18.648 18.59-18.648 10.265 0 18.59 8.351 18.59 18.648Z"/></g><defs><clipPath id="a"><path fill="#fff" d="M32.616.853h57.7V113.88h-57.7z"/></clipPath><clipPath id="b"><path fill="#fff" d="M96.64.853h58.49V113.88H96.64z"/></clipPath><clipPath id="c"><path fill="#fff" d="M161.453.853h57.7V113.88h-57.7z"/></clipPath><clipPath id="d"><path fill="#fff" d="M225.476.853h58.49V113.88h-58.49z"/></clipPath><clipPath id="e"><path fill="#fff" d="M290.29.853h57.7V113.88h-57.7z"/></clipPath><clipPath id="f"><path fill="#fff" d="M354.313.853h58.49V113.88h-58.49z"/></clipPath><clipPath id="g"><path fill="#fff" d="M32.616 239.119h57.7v113.028h-57.7z"/></clipPath><clipPath id="h"><path fill="#fff" d="M96.64 239.119h58.49v113.028H96.64z"/></clipPath><clipPath id="i"><path fill="#fff" d="M161.453 239.119h57.7v113.028h-57.7z"/></clipPath><clipPath id="j"><path fill="#fff" d="M225.476 239.119h58.49v113.028h-58.49z"/></clipPath><clipPath id="k"><path fill="#fff" d="M290.29 239.119h57.7v113.028h-57.7z"/></clipPath><clipPath id="l"><path fill="#fff" d="M354.313 239.119h58.49v113.028h-58.49z"/></clipPath><clipPath id="m"><path fill="#fff" d="M0 121.881h57.7v113.028H0z"/></clipPath><clipPath id="n"><path fill="#fff" d="M64.023 121.881h58.49v113.028h-58.49z"/></clipPath><clipPath id="o"><path fill="#fff" d="M128.837 121.881h57.7v113.028h-57.7z"/></clipPath><clipPath id="p"><path fill="#fff" d="M192.86 121.881h58.49v113.028h-58.49z"/></clipPath><clipPath id="q"><path fill="#fff" d="M257.673 121.881h57.7v113.028h-57.7z"/></clipPath><clipPath id="r"><path fill="#fff" d="M321.696 121.881h58.49v113.028h-58.49z"/></clipPath><clipPath id="s"><path fill="#fff" d="M386.51 121.881H445v113.028h-58.49z"/></clipPath></defs></svg>